<svg width="18" height="16" viewBox="0 0 18 16" fill="none" xmlns="http://www.w3.org/2000/svg">
<path fill-rule="evenodd" clip-rule="evenodd" d="M17.979 2.36284C17.9532 2.33213 17.9106 2.32171 17.8743 2.33846C17.3361 2.57945 16.77 2.7527 16.1869 2.85505C16.8059 2.38498 17.2672 1.73403 17.5037 0.987608C17.5151 0.951878 17.5033 0.912798 17.4744 0.889537C17.4453 0.866275 17.4049 0.863298 17.373 0.882465C16.6758 1.29987 15.9206 1.59409 15.1276 1.75729C14.4248 1.0211 13.4435 0.599976 12.4278 0.599976C10.3623 0.599976 8.68211 2.29603 8.68211 4.38083C8.68211 4.63299 8.70626 4.88273 8.75419 5.12521C5.89336 4.94693 3.21836 3.56053 1.3995 1.30862C1.38088 1.28554 1.35268 1.2727 1.32318 1.27568C1.29387 1.27791 1.26769 1.29466 1.25294 1.32016C0.921099 1.89481 0.745777 2.55228 0.745777 3.2211C0.745777 4.38027 1.2675 5.46408 2.15591 6.17924C1.69853 6.12378 1.25183 5.97844 0.849016 5.75271C0.821916 5.73727 0.788179 5.73745 0.761078 5.75327C0.733978 5.7689 0.716833 5.79793 0.716095 5.82957L0.715727 5.87795C0.715727 7.54274 1.8025 9.00451 3.3487 9.48984C2.94145 9.55609 2.51891 9.55162 2.10356 9.4716C2.07295 9.46583 2.04088 9.47644 2.01986 9.50026C1.99903 9.52408 1.99202 9.55739 2.00161 9.58754C2.46526 11.0484 3.75354 12.0728 5.25309 12.2005C4.00224 13.1255 2.5237 13.6129 0.961473 13.6129C0.673694 13.6129 0.383886 13.5956 0.0999786 13.5619C0.0594204 13.5573 0.0192308 13.5817 0.00521981 13.6209C-0.00879122 13.6606 0.00614159 13.7049 0.0411692 13.7274C1.73171 14.8218 3.68643 15.4 5.69425 15.4C12.2619 15.4 16.1865 10.0148 16.1865 4.80866C16.1865 4.66369 16.1837 4.51947 16.178 4.37562C16.8865 3.85251 17.4947 3.21217 17.9851 2.47096C18.007 2.43783 18.0046 2.39373 17.979 2.36284Z" fill="white"/>
</svg>
