<svg width="18" height="16" viewBox="0 0 18 16" fill="none" xmlns="http://www.w3.org/2000/svg">
<path fill-rule="evenodd" clip-rule="evenodd" d="M9 0.800049C6.102 0.800049 2.3406 1.5294 2.3406 1.5294L2.33113 1.54026C1.01123 1.7523 0 2.89153 0 4.27701V11.7217C0.00266071 13.09 0.993669 14.2524 2.33789 14.4653L2.3406 14.4693C2.3406 14.4693 6.102 15.2 9 15.2C11.898 15.2 15.6594 14.4693 15.6594 14.4693C17.0065 14.2555 17.9986 13.0914 18 11.7231V4.27701C17.998 2.90961 17.0068 1.74646 15.6621 1.53347C15.6594 1.5294 11.898 0.800049 9 0.800049ZM7.2 4.85005L12.6 8.00005L7.2 11.15V4.85005Z" fill="white"/>
</svg>
