<svg width="0" height="0" class="hidden">
  <symbol xmlns="http://www.w3.org/2000/svg" viewBox="0 0 19 16" id="images">
    <path fill-rule="evenodd" clip-rule="evenodd" d="M3 3.5v-2a1 1 0 011-1h14a1 1 0 011 1v10a1 1 0 01-1 1h-2v2a1 1 0 01-1 1H1a1 1 0 01-1-1v-10a1 1 0 011-1h2zm12 9H4a1 1 0 01-1-1v-7H1v10h14v-2zM4 1.5v10h14v-10H4zm14 10H4v-1l3-3 3 2 4-4 4 5v1zm-8.5-5a1.5 1.5 0 110-3 1.5 1.5 0 010 3z"></path>
  </symbol>
  <symbol xmlns="http://www.w3.org/2000/svg" viewBox="0 0 15 14" id="comment">
    <path fill-rule="evenodd" clip-rule="evenodd" d="M11.135 11v3L8.36 11H2.25a1.5 1.5 0 01-1.5-1.5V2A1.5 1.5 0 012.25.5h10.5a1.5 1.5 0 011.5 1.5v7.5a1.5 1.5 0 01-1.5 1.5h-1.615z"></path>
  </symbol>
  <symbol xmlns="http://www.w3.org/2000/svg" viewBox="0 0 13 13" id="like">
    <path fill-rule="evenodd" clip-rule="evenodd" d="M11.84 1.96C11.17 1.212 10.28.8 9.334.8c-.947 0-1.74.412-2.41 1.16l-.425.68-.425-.68C5.406 1.212 4.612.8 3.665.8c-.945 0-1.835.412-2.504 1.16-1.381 1.546-1.381 4.06 0 5.604l4.949 4.757a.523.523 0 00.393.179c.14 0 .28-.06.387-.18l4.95-4.756c1.38-1.544 1.38-4.058 0-5.604z"></path>
  </symbol>
  <symbol xmlns="http://www.w3.org/2000/svg" viewBox="0 0 20 20" id="search">
    <path fill-rule="evenodd" clip-rule="evenodd" d="M18.435 17.395l-4.289-4.455a7.238 7.238 0 001.707-4.673C15.853 4.26 12.59 1 8.577 1S1.3 4.26 1.3 8.267c0 4.008 3.264 7.268 7.277 7.268a7.206 7.206 0 004.168-1.315l4.322 4.49c.181.187.424.29.684.29a.948.948 0 00.684-1.605zm-9.858-14.5a5.381 5.381 0 015.378 5.372 5.381 5.381 0 01-5.378 5.372 5.381 5.381 0 01-5.379-5.372 5.381 5.381 0 015.379-5.371z"></path>
  </symbol>
  <symbol xmlns="http://www.w3.org/2000/svg" viewBox="0 0 15 7" id="arrow">
    <path fill-rule="evenodd" clip-rule="evenodd" d="M0 3v1h11v3l4-3.5L11 0v3H0z"></path>
  </symbol>
  <symbol xmlns="http://www.w3.org/2000/svg" viewBox="0 0 56 72" id="file">
    <path fill-rule="evenodd" clip-rule="evenodd" d="M40 0l16 16v52a4 4 0 01-4 4H4a4 4 0 01-4-4V4a4 4 0 014-4h36zm-4 20V4H4v64h48V20H36z"></path>
  </symbol>
  <symbol xmlns="http://www.w3.org/2000/svg" viewBox="0 0 17 17" id="download">
    <path fill-rule="evenodd" clip-rule="evenodd" d="M16 12.426c0-.237.263-.426.5-.426s.5.189.5.426v4.134a.44.44 0 01-.432.44H.426A.435.435 0 010 16.56v-4.134C0 12.19.263 12 .5 12s.5.189.5.426V16h15v-3.574zM9 0v10h3l-3.5 4L5 10h3V0h1z"></path>
  </symbol>
  <symbol xmlns="http://www.w3.org/2000/svg" viewBox="0 0 14 18" id="bookmark">
    <path fill-rule="evenodd" clip-rule="evenodd" d="M2 0h10a2 2 0 012 2v16l-6.905-5L0 18V2a2 2 0 012-2z"></path>
  </symbol>
  <symbol xmlns="http://www.w3.org/2000/svg" viewBox="0 0 10 18" id="facebook">
    <path fill-rule="evenodd" clip-rule="evenodd" d="M9.623.004L7.225 0C4.53 0 2.789 1.739 2.789 4.43v2.042H.377A.372.372 0 000 6.84V9.8c0 .203.169.367.377.367H2.79v7.467c0 .203.169.367.377.367h3.146a.372.372 0 00.378-.367v-7.467h2.82a.372.372 0 00.376-.367l.002-2.96c0-.097-.04-.19-.11-.26a.383.383 0 00-.268-.107H6.69V4.741c0-.832.203-1.255 1.317-1.255h1.616A.372.372 0 0010 3.119V.37a.372.372 0 00-.377-.367z"></path>
  </symbol>
  <symbol xmlns="http://www.w3.org/2000/svg" viewBox="0 0 18 18" id="instagram">
    <path fill-rule="evenodd" clip-rule="evenodd" d="M9 .5c2.309 0 2.598.01 3.505.051.904.041 1.522.185 2.063.395a4.166 4.166 0 011.505.98c.473.473.764.947.98 1.506.21.54.355 1.159.396 2.063.041.907.051 1.197.051 3.505 0 2.309-.01 2.598-.051 3.505-.041.904-.185 1.522-.395 2.063a4.167 4.167 0 01-.98 1.505 4.167 4.167 0 01-1.506.98c-.54.21-1.159.355-2.063.396-.907.041-1.197.051-3.505.051s-2.598-.01-3.505-.051c-.904-.041-1.522-.185-2.063-.395a4.167 4.167 0 01-1.505-.98 4.166 4.166 0 01-.98-1.506c-.21-.54-.355-1.159-.396-2.063C.51 11.598.5 11.308.5 9s.01-2.598.051-3.505c.041-.904.185-1.522.395-2.063a4.166 4.166 0 01.98-1.505 4.166 4.166 0 011.506-.98C3.972.736 4.591.591 5.495.55 6.402.51 6.692.5 9 .5zm-.003 11.33a2.833 2.833 0 100-5.665 2.833 2.833 0 000 5.665zm0-7.196a4.363 4.363 0 110 8.727 4.363 4.363 0 010-8.727zm5.859-.262a1.039 1.039 0 11-2.078 0 1.039 1.039 0 012.078 0z"></path>
  </symbol>
  <symbol xmlns="http://www.w3.org/2000/svg" viewBox="0 0 18 16" id="twitter">
    <path fill-rule="evenodd" clip-rule="evenodd" d="M17.979 2.363a.088.088 0 00-.105-.025 7.151 7.151 0 01-1.687.517A3.777 3.777 0 0017.504.988a.09.09 0 00-.03-.098.089.089 0 00-.101-.008 7.177 7.177 0 01-2.245.875A3.745 3.745 0 0012.428.6c-2.066 0-3.746 1.696-3.746 3.78 0 .253.024.503.072.745A10.298 10.298 0 011.4 1.31a.09.09 0 00-.147.012 3.806 3.806 0 00-.507 1.9 3.79 3.79 0 001.41 2.958 3.557 3.557 0 01-1.307-.426.088.088 0 00-.088 0 .09.09 0 00-.045.077v.048A3.79 3.79 0 003.349 9.49a3.57 3.57 0 01-1.245-.018.09.09 0 00-.102.116A3.752 3.752 0 005.253 12.2a7.155 7.155 0 01-4.292 1.412c-.287 0-.577-.017-.861-.051a.09.09 0 00-.095.059.09.09 0 00.036.106A10.38 10.38 0 005.694 15.4c6.568 0 10.492-5.385 10.492-10.591 0-.145-.002-.29-.008-.433a7.51 7.51 0 001.807-1.905.091.091 0 00-.006-.108z"></path>
  </symbol>
  <symbol xmlns="http://www.w3.org/2000/svg" viewBox="0 0 34 19" id="vk">
    <path fill-rule="evenodd" d="M31.558 1.287C31.781.545 31.558 0 30.5 0H27c-.89 0-1.3.47-1.523.99 0 0-1.78 4.338-4.301 7.156-.816.816-1.187 1.076-1.631 1.076-.223 0-.557-.26-.557-1.002V1.287C18.988.397 18.742 0 18 0h-5.5c-.556 0-.89.413-.89.804 0 .844 1.26 1.039 1.39 3.412V9.37c0 1.13-.204 1.335-.649 1.335-1.187 0-4.073-4.358-5.784-9.344C6.23.39 5.895 0 5 0H1.5C.5 0 .3.47.3.99c0 .927 1.187 5.525 5.525 11.606C8.717 16.749 12.792 19 16.5 19c2.225 0 2.5-.5 2.5-1.361V14.5c0-1 .21-1.2.915-1.2.52 0 1.41.26 3.486 2.262C25.774 17.935 26.165 19 27.5 19H31c1 0 1.5-.5 1.21-1.487-.315-.983-1.448-2.41-2.951-4.101-.816-.964-2.04-2.003-2.41-2.522-.52-.667-.371-.964 0-1.557 0 0 4.264-6.007 4.708-8.046z"></path>
  </symbol>
  <symbol xmlns="http://www.w3.org/2000/svg" viewBox="0 0 18 16" id="youtube">
    <path fill-rule="evenodd" clip-rule="evenodd" d="M9 .8c-2.898 0-6.66.73-6.66.73l-.009.01A2.77 2.77 0 000 4.277v7.445a2.778 2.778 0 002.338 2.743l.003.004S6.102 15.2 9 15.2c2.898 0 6.66-.73 6.66-.73A2.78 2.78 0 0018 11.722V4.277a2.778 2.778 0 00-2.338-2.744C15.66 1.53 11.898.8 9 .8zM7.2 4.85L12.6 8l-5.4 3.15v-6.3z"></path>
  </symbol>
  <symbol xmlns="http://www.w3.org/2000/svg" viewBox="0 0 18 17" id="home">
    <path fill-rule="evenodd" clip-rule="evenodd" d="M2 17h5v-6h4v6h5v-7h2L9 0 0 10h2v7z"></path>
  </symbol>
  <symbol xmlns="http://www.w3.org/2000/svg" viewBox="0 0 15 7" id="left-arrow">
    <path fill-rule="evenodd" clip-rule="evenodd" d="M15 3v1H4v3L0 3.5 4 0v3h11z"></path>
  </symbol>
  <symbol xmlns="http://www.w3.org/2000/svg" viewBox="0 0 14 14" id="clock">
    <path fill-rule="evenodd" clip-rule="evenodd" d="M7.5 14.25a6.75 6.75 0 110-13.5 6.75 6.75 0 010 13.5zm.75-6.75v-3a.75.75 0 00-1.5 0v3.75c0 .414.336.75.75.75h2.25a.75.75 0 000-1.5h-1.5z"></path>
  </symbol>
  <symbol xmlns="http://www.w3.org/2000/svg" viewBox="0 0 15 11" id="eye">
    <path fill-rule="evenodd" clip-rule="evenodd" d="M15 5.262s-3 5.113-7.5 5.113S0 5.262 0 5.262 3 .625 7.5.625 15 5.262 15 5.262zM7.5 2.875a2.629 2.629 0 012.625 2.626A2.626 2.626 0 117.5 2.875zm-.001 3.938c.724 0 1.31-.591 1.31-1.316 0-.726-.587-1.317-1.31-1.317-.724 0-1.311.59-1.311 1.316 0 .726.587 1.317 1.31 1.317z"></path>
  </symbol>
  <symbol xmlns="http://www.w3.org/2000/svg" viewBox="0 0 18 18" id="pencil">
    <path fill-rule="evenodd" clip-rule="evenodd" d="M0 14.2V18h3.8l11-11.1L11 3.1 0 14.2zM17.7 4c.4-.4.4-1 0-1.4L15.4.3c-.4-.4-1-.4-1.4 0l-1.8 1.8L16 5.9 17.7 4z"></path>
  </symbol>
</svg>
